<svg width="49" height="45" viewBox="0 0 49 45" fill="none" xmlns="http://www.w3.org/2000/svg">
<rect x="0.5" y="0.5" width="47.108" height="43.992" rx="9.5" fill="#8A63D2"/>
<rect x="0.5" y="0.5" width="47.108" height="43.992" rx="9.5" stroke="#7B4BD4"/>
<path d="M34.16 8.068H34.229V8H34.16V8.068ZM13.57 8.068V8H13.501V8.068H13.57ZM34.16 12.163H34.091V12.231H34.16V12.163ZM40.015 12.163L40.082 12.183L40.108 12.095H40.015V12.163ZM38.788 16.259V16.327H38.839L38.854 16.278L38.788 16.259ZM37.749 16.259V16.191H37.68V16.259H37.749ZM37.749 32.829H37.68V32.897H37.749V32.829ZM38.693 34.876H38.624V34.944H38.693V34.876ZM39.827 36.924V36.992H39.895V36.924H39.827ZM29.248 36.924H29.179V36.992H29.248V36.924ZM30.382 34.876V34.944H30.451V34.876H30.382ZM31.128 32.849L31.143 32.915L31.197 32.904V32.849H31.128ZM31.108 23.706H31.177V23.703L31.176 23.7L31.108 23.706ZM16.622 23.706L16.553 23.7V23.706H16.622ZM16.602 32.841H16.533L16.532 32.9L16.591 32.909L16.602 32.841ZM17.726 34.876H17.657V34.944H17.726V34.876ZM18.859 36.924V36.992H18.928V36.924H18.859ZM8.281 36.924H8.212V36.992H8.281V36.924ZM9.414 34.876V34.944H9.483V34.876H9.414ZM10.359 32.829V32.897H10.428V32.829H10.359ZM10.359 16.259H10.428V16.191H10.359V16.259ZM9.32 16.259L9.254 16.278L9.268 16.327H9.32V16.259ZM8.092 12.163V12.096H8L8.026 12.183L8.092 12.163ZM13.57 12.163V12.231H13.639V12.163H13.57ZM34.16 8H13.57V8.135H34.16V8ZM34.229 12.163V8.068H34.091V12.163H34.229ZM40.015 12.095H34.16V12.231H40.015V12.095ZM38.854 16.278L40.082 12.183L39.949 12.144L38.721 16.24L38.854 16.278ZM37.749 16.327H38.788V16.191H37.749V16.327ZM37.818 32.829V16.259H37.68V32.829H37.818ZM38.762 33.759C38.762 33.208 38.308 32.761 37.749 32.761V32.897C38.232 32.897 38.624 33.283 38.624 33.759H38.762ZM38.762 34.876V33.759H38.624V34.876H38.762ZM38.882 34.809H38.693V34.944H38.882V34.809ZM39.895 35.807C39.895 35.256 39.442 34.809 38.882 34.809V34.944C39.366 34.944 39.758 35.331 39.758 35.807H39.895ZM39.895 36.924V35.807H39.758V36.924H39.895ZM34.16 36.992H39.827V36.856H34.16V36.992ZM31.137 36.992H34.16V36.856H31.137V36.992ZM29.248 36.992H31.137V36.856H29.248V36.992ZM29.179 35.807V36.924H29.317V35.807H29.179ZM30.193 34.809C29.633 34.809 29.179 35.256 29.179 35.807H29.317C29.317 35.331 29.709 34.944 30.193 34.944V34.809ZM30.382 34.809H30.193V34.944H30.382V34.809ZM30.313 33.759V34.876H30.451V33.759H30.313ZM31.114 32.783C30.656 32.879 30.313 33.28 30.313 33.759H30.451C30.451 33.345 30.747 32.999 31.143 32.915L31.114 32.783ZM31.039 23.706L31.059 32.849H31.197L31.177 23.706H31.039ZM23.865 17.258C27.622 17.258 30.708 20.094 31.039 23.712L31.176 23.7C30.839 20.012 27.695 17.122 23.865 17.122V17.258ZM16.691 23.712C17.022 20.094 20.107 17.258 23.865 17.258V17.122C20.035 17.122 16.891 20.012 16.553 23.7L16.691 23.712ZM16.671 32.841L16.691 23.706H16.553L16.533 32.841H16.671ZM17.795 33.759C17.795 33.498 17.62 33.269 17.394 33.101C17.167 32.931 16.875 32.813 16.612 32.774L16.591 32.909C16.832 32.945 17.102 33.053 17.311 33.209C17.522 33.366 17.657 33.559 17.657 33.759H17.795ZM17.795 34.876V33.759H17.657V34.876H17.795ZM17.915 34.809H17.726V34.944H17.915V34.809ZM18.928 35.807C18.928 35.256 18.474 34.809 17.915 34.809V34.944C18.398 34.944 18.79 35.331 18.79 35.807H18.928ZM18.928 36.924V35.807H18.79V36.924H18.928ZM16.592 36.992H18.859V36.856H16.592V36.992ZM16.435 36.992H16.592V36.856H16.435V36.992ZM13.57 36.992H16.435V36.856H13.57V36.992ZM8.281 36.992H13.57V36.856H8.281V36.992ZM8.212 35.807V36.924H8.35V35.807H8.212ZM9.225 34.809C8.666 34.809 8.212 35.256 8.212 35.807H8.35C8.35 35.331 8.742 34.944 9.225 34.944V34.809ZM9.414 34.809H9.225V34.944H9.414V34.809ZM9.345 33.759V34.876H9.483V33.759H9.345ZM10.359 32.761C9.799 32.761 9.345 33.208 9.345 33.759H9.483C9.483 33.283 9.875 32.897 10.359 32.897V32.761ZM10.29 16.259V32.829H10.428V16.259H10.29ZM9.32 16.327H10.359V16.191H9.32V16.327ZM8.026 12.183L9.254 16.278L9.386 16.24L8.158 12.144L8.026 12.183ZM13.57 12.095L8.092 12.096V12.231H13.57V12.095ZM13.501 8.068V12.163H13.639V8.068H13.501Z" fill="white"/>
<path d="M13.5255 8.072H34.185V12.1659H40.0598L38.8287 16.2607H37.7861V32.8262C38.3089 32.8262 38.7333 33.2421 38.7333 33.7559V34.8726H38.923C39.4467 34.8726 39.8712 35.2895 39.8712 35.8033V36.92H29.2565V35.8033C29.2565 35.2895 29.6809 34.8726 30.2046 34.8726H30.3943V33.7559C30.3943 33.309 30.7154 32.9361 31.1428 32.8462L31.1227 23.7057C30.7876 20.0537 27.6621 17.1915 23.8553 17.1915C20.0485 17.1915 16.923 20.0537 16.5878 23.7057L16.5678 32.8382C17.0735 32.9121 17.6956 33.295 17.6956 33.7559V34.8726H17.8852C18.408 34.8726 18.8324 35.2895 18.8324 35.8033V36.92H8.21869V35.8033C8.21869 35.2895 8.64312 34.8726 9.16588 34.8726H9.35551V33.7559C9.35551 33.2421 9.77994 32.8262 10.3037 32.8262V16.2607H9.2612L8.02905 12.1659H13.5255V8.072Z" fill="white"/>
</svg>
