<svg width="1488" height="1922" viewBox="0 0 1488 1922" fill="none" xmlns="http://www.w3.org/2000/svg">
<path d="M9.43628 68C9.43628 35.4152 35.8515 9 68.4362 9H1420C1452.58 9 1479 35.4153 1479 68.0001V1409.64C1479 1429.8 1468.71 1448.56 1451.72 1459.39L775.939 1890.32C756.591 1902.66 731.844 1902.66 712.495 1890.32L36.7143 1459.39C19.7224 1448.56 9.43628 1429.8 9.43628 1409.64V68Z" fill="#1E0C40" stroke="white" stroke-width="18"/>
<mask id="mask0_345_302" style="mask-type:luminance" maskUnits="userSpaceOnUse" x="0" y="0" width="1488" height="1906">
<path d="M82.6253 0C36.9926 0 0 36.9926 0 82.6252V1401.62C0 1429.85 14.405 1456.12 38.2009 1471.29L699.357 1892.89C726.453 1910.17 761.109 1910.17 788.205 1892.89L1449.36 1471.29C1473.16 1456.12 1487.56 1429.85 1487.56 1401.62V82.6253C1487.56 36.9927 1450.57 0 1404.94 0H82.6253Z" fill="white"/>
</mask>
<g mask="url(#mask0_345_302)">
<path d="M393.058 406.091V565.044H495.813V778.767H393.058V1151.44H146.487V192.297H502.74V406.02H393.129L393.058 406.091Z" fill="#D9D9D9"/>
<path d="M787.656 192.369C950.68 192.369 1045.22 277.273 1045.22 428.014V434.869C1045.22 578.756 965.747 652.734 905.479 652.734V669.158C963.033 669.158 1058.93 756.846 1058.93 897.947V915.728C1058.93 1063.68 956.178 1151.37 787.656 1151.37H535.516V192.227H787.656V192.369ZM782.158 554.12H784.871C798.582 554.12 798.582 551.407 798.582 532.198V428.086C798.582 408.877 798.582 406.164 784.871 406.164H782.158V554.12ZM782.158 937.793H784.871C798.582 937.793 798.582 935.008 798.582 915.871V789.836C798.582 770.628 798.582 767.914 784.871 767.914H782.158V937.864V937.793Z" fill="#D9D9D9"/>
<path d="M1341.21 192.369V1151.52H1094.57V192.369H1341.21Z" fill="#D9D9D9"/>
<path d="M434.171 1030.52H437.741C443.311 1030.52 447.738 1035.02 447.738 1040.51V1205.18H424.174V1040.51C424.174 1034.94 428.673 1030.52 434.171 1030.52Z" fill="#9259EF"/>
<path d="M1024.35 1030.52H1027.92C1033.49 1030.52 1037.92 1035.02 1037.92 1040.51V1205.18H1014.36V1040.51C1014.36 1034.94 1018.85 1030.52 1024.35 1030.52Z" fill="#9259EF"/>
<path d="M483.441 1205.25H388.969V1274.8H332.842V1353.06H730.939V1069.08H483.441V1205.25Z" fill="#300A6F"/>
<path d="M1072.91 1274.8V1205.25H978.438V1069.08H730.939V1353.06H1129.04V1274.8H1072.91Z" fill="#300A6F"/>
<path d="M1037.92 1069.08H978.436V1205.18H1037.92V1069.08Z" fill="#300A6F"/>
<path d="M483.656 1069.08H424.174V1205.18H483.656V1069.08Z" fill="#300A6F"/>
<path d="M728.149 1413.62H725.721H723.293L333.837 1416.77V2124.92H596.688V1637.56C596.688 1631.92 595.402 1626.21 595.902 1620.64C595.117 1614.85 593.903 1609 593.903 1603C593.903 1529.31 653.243 1469.61 726.935 1469.61C800.628 1469.61 860.182 1529.31 860.182 1603C860.182 1611.71 860.182 1620.21 858.539 1628.49C858.682 1631.49 859.539 1634.56 859.539 1637.56V2124.92H1117.53V1416.77L728.078 1413.62H728.149Z" fill="#300A6F"/>
<path d="M1047.13 1478.03C1047.13 1476.46 1046.7 1474.89 1045.91 1472.89C1044.7 1469.32 1043.13 1464.97 1039.99 1460.61C1036.84 1456.26 1032.49 1451.9 1026.92 1448.76C1021.35 1445.62 1014.64 1443.62 1007.57 1443.19H1002.43C1000.43 1443.62 998.499 1443.62 996.856 1443.97C993.286 1444.76 989.716 1446.33 986.574 1447.9C979.861 1451.47 974.292 1456.61 970.364 1463.32C968.365 1466.47 967.222 1470.04 966.008 1473.61C965.223 1477.18 964.438 1481.1 964.438 1484.68C964.438 1486.25 964.437 1489.03 964.866 1490.6C964.866 1492.17 965.651 1494.17 966.08 1495.74C967.294 1499.31 968.436 1502.88 970.436 1506.03C974.363 1512.38 979.933 1517.88 986.645 1521.45C993.358 1525.02 1000.5 1526.59 1007.57 1526.59C1014.28 1526.16 1021.42 1524.24 1026.92 1521.02C1032.42 1517.81 1036.77 1513.52 1039.99 1509.17C1043.13 1504.81 1044.7 1500.46 1045.91 1496.89C1046.34 1494.89 1046.7 1493.32 1047.13 1491.74C1047.56 1490.17 1047.56 1488.96 1047.56 1487.82V1481.46C1047.98 1480.68 1047.56 1479.46 1047.13 1477.89V1478.03Z" fill="#9259EF"/>
<path d="M1042.7 1478.75C1042.7 1477.32 1042.34 1475.89 1041.63 1474.18C1040.56 1471.04 1039.13 1467.11 1036.34 1463.26C1033.49 1459.4 1029.63 1455.47 1024.71 1452.69C1019.78 1449.9 1013.78 1448.12 1007.42 1447.76H1002.85C1001.07 1448.12 999.356 1448.12 997.928 1448.47C994.786 1449.19 991.572 1450.62 988.787 1451.97C982.789 1455.11 977.862 1459.76 974.292 1465.75C972.506 1468.61 971.435 1471.75 970.436 1474.89C969.722 1478.04 969.007 1481.61 969.007 1484.75C969.007 1486.18 969.007 1488.6 969.365 1490.03C969.365 1491.46 970.079 1493.18 970.436 1494.6C971.507 1497.75 972.578 1500.96 974.292 1503.74C977.791 1509.38 982.789 1514.31 988.787 1517.53C994.786 1520.67 1001.14 1522.1 1007.5 1522.1C1013.49 1521.74 1019.85 1519.95 1024.78 1517.17C1029.7 1514.38 1033.63 1510.46 1036.42 1506.6C1039.27 1502.74 1040.63 1498.82 1041.7 1495.67C1042.06 1493.89 1042.41 1492.53 1042.77 1491.1C1043.13 1489.68 1043.13 1488.61 1043.13 1487.61V1481.96C1043.49 1481.25 1043.13 1480.18 1042.77 1478.82L1042.7 1478.75Z" fill="#6537B1"/>
<path d="M909.885 1143.91C909.885 1145.13 910.314 1146.7 910.671 1148.27C911.456 1151.41 913.027 1154.98 915.812 1158.55C918.597 1162.12 922.167 1165.69 926.88 1168.41C931.593 1171.19 937.163 1172.76 943.09 1172.76C949.445 1172.76 954.944 1171.19 960.513 1168.41C965.655 1165.62 970.368 1160.91 973.581 1155.77C975.152 1152.98 976.366 1150.2 977.151 1147.48C977.937 1144.34 978.365 1142.34 978.365 1138.41V1136.42C978.365 1135.63 978.365 1134.84 977.937 1134.06C977.937 1132.49 977.508 1130.92 977.151 1129.7C976.366 1126.92 975.152 1123.78 973.581 1121.42C970.439 1116.28 966.083 1111.57 960.513 1108.78C957.728 1107.21 954.943 1106 952.23 1105.64C951.016 1105.21 949.088 1104.85 947.517 1104.85C946.303 1104.85 944.732 1104.42 943.161 1104.42C937.234 1104.42 931.665 1106 926.952 1108.78C922.239 1111.57 918.668 1115.14 915.884 1118.63C913.099 1122.21 911.956 1125.78 910.742 1128.92C910.314 1130.49 909.957 1131.7 909.957 1133.27C909.528 1134.49 909.528 1135.63 909.528 1136.42V1141.99C909.528 1141.99 909.528 1142.77 909.957 1143.98L909.885 1143.91Z" fill="#9259EF"/>
<path d="M800.275 1106C777.139 1105.57 754.003 1105.21 730.867 1104.78V1170.05C730.867 1170.05 731.224 1170.05 731.367 1170.05C754.503 1170.05 777.639 1169.62 800.775 1169.62H861.4V1106.78L800.275 1106Z" fill="#6537B1"/>
<path d="M661.53 1106C684.666 1105.57 707.802 1105.21 730.938 1104.78V1170.05C730.938 1170.05 730.581 1170.05 730.438 1170.05C707.302 1170.05 684.166 1169.62 661.03 1169.62H600.405V1106.78L661.53 1106Z" fill="#6537B1"/>
<path d="M943.877 1022.95H511.647V1069.08H943.877V1022.95Z" fill="#6537B1"/>
<path d="M831.836 1012.88H623.755C623.755 979.962 650.461 953.256 683.38 953.256H772.282C805.201 953.256 831.908 979.962 831.908 1012.88H831.836Z" fill="#300A6F"/>
<path d="M520.281 2066.29C519.496 2048.08 518.71 2027.16 518.282 2004.59C518.282 1993.1 517.853 1981.67 517.853 1969.82C517.853 1957.96 517.853 1945.68 517.425 1933.83C517.425 1921.55 517.425 1909.69 517.853 1897.84C517.853 1885.98 518.282 1874.13 518.282 1863.06C518.282 1851.99 518.71 1840.93 519.067 1830.22C519.496 1819.93 519.853 1810.08 520.281 1800.94C521.495 1776.02 522.638 1756.67 523.423 1747.17H447.088L384.25 1746.74C385.035 1756.24 386.606 1775.59 387.392 1800.87C388.177 1819.08 388.963 1840 389.391 1862.56C389.391 1874.06 389.82 1885.49 389.82 1897.34C389.82 1909.19 389.82 1921.47 390.248 1933.33C390.248 1945.61 390.248 1957.46 389.82 1969.32C389.82 1981.17 389.391 1993.02 389.391 2004.09C389.391 2015.16 388.963 2026.23 388.606 2036.94C388.177 2047.22 387.82 2057.08 387.392 2066.22C386.678 2083.64 385.821 2098.21 385.035 2108.63H522.423C521.638 2098.14 520.781 2083.57 520.21 2066.22L520.281 2066.29Z" fill="#6537B1"/>
<path d="M1068.84 2066.29C1068.05 2048.08 1067.26 2027.16 1066.84 2004.59C1066.84 1993.1 1066.41 1981.67 1066.41 1969.82C1066.41 1957.96 1066.41 1945.68 1065.98 1933.83C1065.98 1921.55 1065.98 1909.69 1066.41 1897.84C1066.41 1885.98 1066.84 1874.13 1066.84 1863.06C1066.84 1851.99 1067.26 1840.93 1067.62 1830.22C1068.05 1819.93 1068.41 1810.08 1068.84 1800.94C1070.05 1776.02 1071.19 1756.67 1071.98 1747.17H995.643L932.804 1746.74C933.589 1756.24 935.16 1775.59 935.946 1800.87C936.731 1819.08 937.517 1840 937.945 1862.56C937.945 1874.06 938.374 1885.49 938.374 1897.34C938.374 1909.19 938.374 1921.47 938.802 1933.33C938.802 1945.61 938.802 1957.46 938.374 1969.32C938.374 1981.17 937.945 1993.02 937.945 2004.09C937.945 2015.16 937.517 2026.23 937.16 2036.94C936.731 2047.22 936.374 2057.08 935.946 2066.22C935.232 2083.64 934.375 2098.21 933.589 2108.63H1070.98C1070.19 2098.14 1069.34 2083.57 1068.76 2066.22L1068.84 2066.29Z" fill="#6537B1"/>
<path d="M536.849 1559.08H370.827V1595.43H536.849V1559.08Z" fill="#6537B1"/>
<path d="M536.849 1646.06H370.827V1696.26H536.849V1646.06Z" fill="#6537B1"/>
<path d="M1089.12 1559.08H923.093V1595.43H1089.12V1559.08Z" fill="#6537B1"/>
<path d="M1089.12 1646.06H923.093V1696.26H1089.12V1646.06Z" fill="#6537B1"/>
<path d="M1129.03 1274.81H332.839V1291.8H1129.03V1274.81Z" fill="#9259EF"/>
<path d="M1072.91 1205.26H388.965V1219.61H1072.91V1205.26Z" fill="#9259EF"/>
<path d="M888.606 1006.17H566.914V1022.95H888.606V1006.17Z" fill="#9259EF"/>
<path d="M1115.18 1366.57H334.052V1416.77H1115.18V1366.57Z" fill="#300A6F"/>
<path d="M1166.59 1314.16H288.92V1378.99H1166.59V1314.16Z" fill="#9259EF"/>
<path d="M353.331 1380.07H333.837V1414.13H353.331V1380.07Z" fill="#9259EF"/>
<path d="M392.32 1380.07H377.681V1414.13H392.32V1380.07Z" fill="#9259EF"/>
<path d="M431.239 1380.07H416.6V1414.13H431.239V1380.07Z" fill="#9259EF"/>
<path d="M470.227 1380.07H455.589V1414.13H470.227V1380.07Z" fill="#9259EF"/>
<path d="M513.998 1380.07H499.36V1414.13H513.998V1380.07Z" fill="#9259EF"/>
<path d="M552.987 1380.07H538.349V1414.13H552.987V1380.07Z" fill="#9259EF"/>
<path d="M591.906 1380.07H577.267V1414.13H591.906V1380.07Z" fill="#9259EF"/>
<path d="M635.676 1380.07H616.182V1414.13H635.676V1380.07Z" fill="#9259EF"/>
<path d="M674.665 1380.07H655.171V1414.13H674.665V1380.07Z" fill="#9259EF"/>
<path d="M713.584 1380.07H698.946V1414.13H713.584V1380.07Z" fill="#9259EF"/>
<path d="M752.5 1380.07H742.788V1414.13H752.5V1380.07Z" fill="#9259EF"/>
<path d="M791.486 1380.07H776.848V1414.13H791.486V1380.07Z" fill="#9259EF"/>
<path d="M835.333 1380.07H820.694V1414.13H835.333V1380.07Z" fill="#9259EF"/>
<path d="M879.107 1380.07H859.613V1414.13H879.107V1380.07Z" fill="#9259EF"/>
<path d="M913.166 1380.07H898.528V1414.13H913.166V1380.07Z" fill="#9259EF"/>
<path d="M957.011 1380.07H942.373V1414.13H957.011V1380.07Z" fill="#9259EF"/>
<path d="M995.928 1380.07H981.29V1414.13H995.928V1380.07Z" fill="#9259EF"/>
<path d="M1034.92 1380.07H1020.28V1414.13H1034.92V1380.07Z" fill="#9259EF"/>
<path d="M1073.76 1380.07H1064.05V1414.13H1073.76V1380.07Z" fill="#9259EF"/>
<path d="M1117.61 1380.07H1098.11V1414.13H1117.61V1380.07Z" fill="#9259EF"/>
<path d="M569.27 1448.19L565.057 2130.49L591.835 2128.99V1598.86C591.835 1482.89 694.091 1462.4 718.369 1458.9V1448.19H569.199H569.27Z" fill="#6537B1"/>
<path d="M888.818 2130.49L882.106 1448.19H737.934V1458.83C762.284 1462.11 864.469 1482.39 864.469 1598.79V2128.92L888.818 2130.42V2130.49Z" fill="#6537B1"/>
<path d="M587.832 1732.89C590.974 1732.89 593.759 1735.25 594.545 1738.82C601.257 1738.82 607.969 1738.82 614.682 1739.24C615.11 1725.82 615.11 1712.75 615.11 1699.33H594.545C594.973 1702.11 592.188 1705.26 588.618 1705.26C566.91 1705.26 545.559 1704.83 523.78 1704.47C504.285 1704.11 485.077 1703.76 465.654 1703.4V1733.32L587.832 1732.96V1732.89Z" fill="#9259EF"/>
<path d="M588.979 1632.49C592.549 1632.49 595.334 1634.85 595.691 1638.42C602.403 1638.42 609.116 1638.42 615.828 1638.85C616.256 1625.42 616.257 1612.35 616.257 1598.93H598.048L597.619 1600.14V1600.57C596.834 1603.36 594.477 1605.28 591.692 1605.28L526.426 1604.86L465.515 1604.5V1634.42L523.998 1632.99L588.836 1632.56L588.979 1632.49Z" fill="#9259EF"/>
<path d="M343.479 1732.89C340.337 1732.89 337.552 1735.25 336.767 1738.82C330.054 1738.82 323.342 1738.82 316.63 1739.24C316.201 1725.82 316.201 1712.75 316.201 1699.33H336.767C336.338 1702.11 339.123 1705.26 342.693 1705.26C364.401 1705.26 385.752 1704.83 407.532 1704.47C427.026 1704.11 446.234 1703.76 465.657 1703.4V1733.32L343.479 1732.96V1732.89Z" fill="#9259EF"/>
<path d="M342.335 1632.49C338.764 1632.49 335.979 1634.85 335.622 1638.42C328.91 1638.42 322.198 1638.42 315.485 1638.85C315.057 1625.42 315.057 1612.35 315.057 1598.93H333.266L333.694 1600.14V1600.57C334.48 1603.36 336.836 1605.28 339.621 1605.28L404.888 1604.86L465.798 1604.5V1634.42L407.315 1632.99L342.477 1632.56L342.335 1632.49Z" fill="#9259EF"/>
<path d="M1114.82 1732.89C1117.96 1732.89 1120.75 1735.25 1121.53 1738.82C1128.25 1738.82 1134.96 1738.82 1141.67 1739.24C1142.1 1725.82 1142.1 1712.75 1142.1 1699.33H1121.53C1121.96 1702.11 1119.18 1705.26 1115.61 1705.26C1093.83 1705.26 1072.55 1704.83 1050.77 1704.47C1031.27 1704.11 1012.07 1703.76 992.643 1703.4V1733.32L1114.82 1732.96V1732.89Z" fill="#9259EF"/>
<path d="M1115.97 1632.49C1119.54 1632.49 1122.32 1634.85 1122.68 1638.42C1129.39 1638.42 1136.1 1638.42 1142.81 1638.85C1143.24 1625.42 1143.24 1612.35 1143.24 1598.93H1125.03L1124.61 1600.14V1600.57C1123.82 1603.36 1121.46 1605.28 1118.68 1605.28L1053.41 1604.86L992.502 1604.5V1634.42L1050.98 1632.99L1115.82 1632.56L1115.97 1632.49Z" fill="#9259EF"/>
<path d="M870.464 1732.89C867.323 1732.89 864.538 1735.25 863.752 1738.82C857.04 1738.82 850.328 1738.82 843.615 1739.24C843.187 1725.82 843.187 1712.75 843.187 1699.33H863.752C863.324 1702.11 866.109 1705.26 869.679 1705.26C891.458 1705.26 912.738 1704.83 934.517 1704.47C954.011 1704.11 973.22 1703.76 992.643 1703.4V1733.32L870.464 1732.96V1732.89Z" fill="#9259EF"/>
<path d="M869.324 1632.49C865.754 1632.49 862.969 1634.85 862.612 1638.42C855.899 1638.42 849.187 1638.42 842.475 1638.85C842.046 1625.42 842.046 1612.35 842.046 1598.93H860.255L860.684 1600.14V1600.57C861.469 1603.36 863.826 1605.28 866.61 1605.28L931.877 1604.86L992.788 1604.5V1634.42L934.305 1632.99L869.467 1632.56L869.324 1632.49Z" fill="#9259EF"/>
<path d="M546.063 1141.99V1136.42C546.063 1135.63 546.063 1134.42 545.635 1133.27C545.635 1131.7 545.206 1130.49 544.849 1128.92C543.635 1125.78 542.493 1122.21 539.708 1118.63C536.923 1115.06 533.352 1111.49 528.639 1108.78C523.927 1106 518.357 1104.42 512.43 1104.42C510.859 1104.42 509.288 1104.85 508.074 1104.85C506.503 1104.85 504.504 1105.28 503.361 1105.64C500.576 1106.07 497.791 1107.21 495.078 1108.78C489.508 1111.57 485.224 1116.28 482.01 1121.42C480.439 1123.78 479.225 1126.99 478.44 1129.7C478.012 1130.92 477.655 1132.49 477.655 1134.06C477.226 1134.84 477.226 1135.63 477.226 1136.42V1138.41C477.226 1142.34 477.655 1144.34 478.44 1147.48C479.225 1150.27 480.439 1153.05 482.01 1155.77C485.152 1160.91 489.937 1165.62 495.078 1168.41C500.648 1171.19 506.146 1172.76 512.501 1172.76C518.428 1172.76 523.998 1171.19 528.711 1168.41C533.424 1165.62 536.994 1162.05 539.779 1158.55C542.564 1154.98 544.135 1151.41 544.92 1148.27C545.349 1146.7 545.706 1145.13 545.706 1143.91C546.134 1142.7 546.134 1141.91 546.134 1141.91L546.063 1141.99Z" fill="#9259EF"/>
<path d="M541.78 1141.56V1136.7C541.78 1135.99 541.78 1134.99 541.423 1133.92C541.423 1132.56 541.066 1131.49 540.709 1130.13C539.638 1127.35 538.638 1124.28 536.21 1121.13C533.782 1117.99 530.641 1114.92 526.499 1112.49C522.357 1110.07 517.501 1108.71 512.289 1108.71C510.932 1108.71 509.504 1109.07 508.504 1109.07C507.147 1109.07 505.362 1109.42 504.363 1109.78C501.935 1110.14 499.507 1111.14 497.079 1112.57C492.223 1114.99 488.439 1119.14 485.654 1123.63C484.297 1125.7 483.226 1128.49 482.512 1130.92C482.155 1131.99 481.798 1133.35 481.798 1134.7C481.441 1135.42 481.441 1136.06 481.441 1136.77V1138.49C481.441 1141.91 481.798 1143.7 482.512 1146.48C483.226 1148.91 484.226 1151.34 485.654 1153.77C488.439 1158.27 492.58 1162.41 497.079 1164.84C501.935 1167.26 506.79 1168.62 512.289 1168.62C517.501 1168.62 522.357 1167.26 526.499 1164.84C530.641 1162.41 533.782 1159.27 536.21 1156.2C538.638 1153.05 539.995 1149.98 540.709 1147.2C541.066 1145.84 541.423 1144.41 541.423 1143.41C541.78 1142.34 541.78 1141.7 541.78 1141.7V1141.56Z" fill="#6537B1"/>
<path d="M974.01 1141.56V1136.7C974.01 1135.99 974.01 1134.99 973.653 1133.92C973.653 1132.56 973.296 1131.49 972.939 1130.13C971.868 1127.35 970.868 1124.28 968.44 1121.13C966.012 1117.99 962.87 1114.92 958.729 1112.49C954.587 1110.07 949.731 1108.71 944.518 1108.71C943.162 1108.71 941.734 1109.07 940.734 1109.07C939.377 1109.07 937.592 1109.42 936.592 1109.78C934.164 1110.14 931.737 1111.14 929.309 1112.57C924.453 1114.99 920.668 1119.14 917.883 1123.63C916.527 1125.7 915.456 1128.49 914.741 1130.92C914.384 1131.99 914.027 1133.35 914.027 1134.7C913.67 1135.42 913.67 1136.06 913.67 1136.77V1138.49C913.67 1141.91 914.027 1143.7 914.741 1146.48C915.456 1148.91 916.455 1151.34 917.883 1153.77C920.668 1158.27 924.81 1162.41 929.309 1164.84C934.164 1167.26 939.02 1168.62 944.518 1168.62C949.731 1168.62 954.587 1167.26 958.729 1164.84C962.87 1162.41 966.012 1159.27 968.44 1156.2C970.868 1153.05 972.225 1149.98 972.939 1147.2C973.296 1145.84 973.653 1144.41 973.653 1143.41C974.01 1142.34 974.01 1141.7 974.01 1141.7V1141.56Z" fill="#6537B1"/>
<path d="M408.817 1491.82C408.817 1493.39 409.246 1494.96 410.031 1496.96C411.245 1500.53 412.816 1504.88 415.958 1509.24C419.1 1513.6 423.456 1517.95 429.025 1521.09C434.595 1524.24 441.308 1526.23 448.377 1526.66C455.875 1527.09 463.015 1525.09 469.299 1521.52C476.012 1517.95 481.581 1512.81 485.509 1506.1C487.508 1502.96 488.651 1499.39 489.865 1495.81C490.65 1491.89 491.436 1489.46 491.436 1484.75V1481.96C491.436 1481.18 491.436 1479.96 491.007 1479.18C491.007 1477.18 490.222 1475.61 489.793 1473.61C488.579 1470.04 487.437 1466.47 485.437 1463.32C481.51 1456.97 475.94 1451.47 469.228 1447.9C466.086 1446.33 462.516 1444.76 458.945 1443.97C457.374 1443.54 455.375 1443.19 453.375 1443.19H448.234C441.093 1443.62 434.381 1445.54 428.883 1448.76C423.384 1451.97 419.028 1456.26 415.815 1460.61C412.673 1464.97 411.102 1469.32 409.888 1472.89C409.46 1474.89 409.103 1476.46 408.674 1478.03C408.246 1479.61 408.246 1480.82 408.246 1481.96V1488.32C408.246 1489.53 408.246 1490.67 408.674 1491.89L408.817 1491.82Z" fill="#9259EF"/>
<path d="M486.578 1478.75C486.578 1477.32 486.221 1475.89 485.507 1474.18C484.436 1471.04 483.008 1467.11 480.223 1463.26C477.367 1459.4 473.511 1455.47 468.584 1452.69C463.656 1449.9 457.658 1448.12 451.303 1447.76H446.733C444.948 1448.12 443.234 1448.12 441.806 1448.47C438.664 1449.19 435.45 1450.62 432.666 1451.97C426.667 1455.11 421.74 1459.76 418.17 1465.75C416.385 1468.61 415.313 1471.75 414.314 1474.89C413.6 1478.04 412.886 1481.61 412.886 1484.75C412.886 1486.18 412.886 1488.6 413.243 1490.03C413.243 1491.46 413.957 1493.18 414.314 1494.6C415.385 1497.75 416.456 1500.96 418.17 1503.74C421.669 1509.38 426.667 1514.31 432.666 1517.53C438.664 1520.67 445.019 1522.1 451.374 1522.1C457.373 1521.74 463.728 1519.95 468.655 1517.17C473.582 1514.38 477.509 1510.46 480.294 1506.6C483.151 1502.74 484.507 1498.82 485.579 1495.67C485.936 1493.89 486.293 1492.53 486.65 1491.1C487.007 1489.68 487.007 1488.61 487.007 1487.61V1481.96C487.364 1481.25 487.007 1480.18 486.65 1478.82L486.578 1478.75Z" fill="#6537B1"/>
<path d="M135.323 146.282V88.3617H178.184V101.27H150.713V112.275H176.447V125.183H150.713V146.282H135.323ZM176.482 146.282L198.326 88.3617H217.606L239.45 146.282H222.818L218.599 133.622H197.085L192.783 146.282H176.482ZM201.222 121.128H214.379L209.993 108.137C209.083 105.241 208.338 103.007 207.842 100.856C207.345 103.007 206.518 105.241 205.608 108.22L201.222 121.128ZM244.247 146.282V88.3617H272.049C283.385 88.3617 291.99 93.2436 291.99 104.083C291.99 112.192 286.446 116.743 280.572 118.398C287.77 119.556 290.915 124.107 290.915 131.388V146.282H275.441V132.712C275.441 127.003 272.959 125.017 267.25 125.017H259.306V146.282H244.247ZM259.306 112.688H268.739C273.456 112.688 276.434 111.033 276.434 106.731C276.434 102.511 273.456 100.939 268.739 100.939H259.306V112.688ZM326.64 147.854C309.015 147.854 297.679 136.353 297.679 117.074C297.679 97.8772 310.753 86.7896 327.633 86.7896C342.692 86.7896 353.78 95.2294 355.021 110.454H339.217C338.472 104 334.583 99.5321 327.55 99.5321C319.689 99.5321 313.649 105.49 313.649 117.074C313.649 128.492 319.11 135.112 327.219 135.112C334.087 135.112 338.803 130.561 339.548 123.197H355.269C354.193 137.429 344.016 147.854 326.64 147.854ZM355.464 146.282L377.308 88.3617H396.587L418.431 146.282H401.8L397.58 133.622H376.067L371.764 146.282H355.464ZM380.204 121.128H393.36L388.975 108.137C388.065 105.241 387.32 103.007 386.823 100.856C386.327 103.007 385.499 105.241 384.589 108.22L380.204 121.128ZM445.189 147.854C429.633 147.854 419.207 139.745 418.545 126.01H434.515C434.928 132.133 439.562 135.277 445.685 135.277C450.402 135.277 454.29 133.457 454.29 129.485C454.29 126.507 452.056 124.934 447.671 124.107L437.824 122.287C428.226 120.549 420.366 115.667 420.366 105.407C420.366 94.071 430.626 86.7896 444.278 86.7896C460.083 86.7896 468.44 94.8985 469.184 106.565H453.215C452.884 102.345 450.071 99.0356 443.782 99.0356C439.148 99.0356 435.673 100.939 435.673 104.331C435.673 107.393 438.404 108.468 443.12 109.296L452.222 110.868C461.489 112.357 469.681 117.156 469.681 128.161C469.681 139.166 461.572 147.854 445.189 147.854ZM490.299 146.282V101.27H472.012V88.3617H523.893V101.27H505.689V146.282H490.299ZM529.971 146.282V88.3617H572.75V101.27H545.361V110.702H571.426V123.28H545.361V133.374H574.073V146.282H529.971ZM582.332 146.282V88.3617H610.134C621.47 88.3617 630.075 93.2436 630.075 104.083C630.075 112.192 624.532 116.743 618.657 118.398C625.855 119.556 629 124.107 629 131.388V146.282H613.527V132.712C613.527 127.003 611.044 125.017 605.335 125.017H597.392V146.282H582.332ZM597.392 112.688H606.824C611.541 112.688 614.52 111.033 614.52 106.731C614.52 102.511 611.541 100.939 606.824 100.939H597.392V112.688ZM654.652 146.282V88.3617H680.799C692.797 88.3617 702.395 92.5816 702.395 103.256C702.395 109.875 698.175 114.343 691.804 115.998C698.754 117.322 704.133 121.873 704.133 129.32C704.133 140.738 694.783 146.282 679.806 146.282H654.652ZM669.463 133.953H680.303C685.929 133.953 688.494 131.968 688.494 128.161C688.494 124.19 685.929 122.452 680.303 122.452H669.463V133.953ZM669.463 111.033H679.723C684.605 111.033 686.922 109.213 686.922 105.655C686.922 102.345 684.605 100.691 679.723 100.691H669.463V111.033ZM736.436 147.854C720.053 147.854 711.282 138.753 711.282 122.949V88.3617H726.673V120.632C726.673 130.147 729.486 134.781 736.519 134.781C743.552 134.781 746.448 130.064 746.448 120.632V88.3617H761.839V122.949C761.839 138.753 752.654 147.854 736.436 147.854ZM771.657 146.282V88.3617H787.047V146.282H771.657ZM797.433 146.282V88.3617H812.824V133.374H839.633V146.282H797.433ZM845.673 146.282V88.3617H868.18C888.286 88.3617 899.953 98.0427 899.953 117.405C899.953 134.533 889.114 146.282 868.014 146.282H845.673ZM861.064 133.374H866.773C876.62 133.374 883.901 129.072 883.901 117.405C883.901 107.145 878.605 101.27 867.187 101.27H861.064V133.374ZM907.731 146.282V88.3617H950.51V101.27H923.121V110.702H949.186V123.28H923.121V133.374H951.833V146.282H907.731ZM960.092 146.282V88.3617H987.894C999.23 88.3617 1007.84 93.2436 1007.84 104.083C1007.84 112.192 1002.29 116.743 996.417 118.398C1003.62 119.556 1006.76 124.107 1006.76 131.388V146.282H991.287V132.712C991.287 127.003 988.804 125.017 983.095 125.017H975.152V146.282H960.092ZM975.152 112.688H984.584C989.301 112.688 992.28 111.033 992.28 106.731C992.28 102.511 989.301 100.939 984.584 100.939H975.152V112.688ZM1039.42 147.854C1023.87 147.854 1013.44 139.745 1012.78 126.01H1028.75C1029.16 132.133 1033.8 135.277 1039.92 135.277C1044.64 135.277 1048.53 133.457 1048.53 129.485C1048.53 126.507 1046.29 124.934 1041.91 124.107L1032.06 122.287C1022.46 120.549 1014.6 115.667 1014.6 105.407C1014.6 94.071 1024.86 86.7896 1038.51 86.7896C1054.32 86.7896 1062.67 94.8985 1063.42 106.565H1047.45C1047.12 102.345 1044.31 99.0356 1038.02 99.0356C1033.38 99.0356 1029.91 100.939 1029.91 104.331C1029.91 107.393 1032.64 108.468 1037.35 109.296L1046.46 110.868C1055.72 112.357 1063.92 117.156 1063.92 128.161C1063.92 139.166 1055.81 147.854 1039.42 147.854ZM1088.25 146.282V88.3617H1103.64V146.282H1088.25ZM1114.02 146.282V88.3617H1135.95L1154.07 125.348C1153.74 122.618 1153.66 120.053 1153.66 116.991L1153.58 88.3617H1168.55V146.282H1149.6L1128.5 103.504C1128.84 106.317 1128.84 108.468 1128.84 111.778L1129 146.282H1114.02ZM1178.99 146.282V88.3617H1201.5C1221.6 88.3617 1233.27 98.0427 1233.27 117.405C1233.27 134.533 1222.43 146.282 1201.33 146.282H1178.99ZM1194.38 133.374H1200.09C1209.94 133.374 1217.22 129.072 1217.22 117.405C1217.22 107.145 1211.92 101.27 1200.5 101.27H1194.38V133.374ZM1241.05 146.282V88.3617H1256.44V146.282H1241.05ZM1261.2 146.282L1283.04 88.3617H1302.32L1324.17 146.282H1307.54L1303.32 133.622H1281.8L1277.5 146.282H1261.2ZM1285.94 121.128H1299.1L1294.71 108.137C1293.8 105.241 1293.06 103.007 1292.56 100.856C1292.06 103.007 1291.23 105.241 1290.32 108.22L1285.94 121.128Z" fill="#9259EF"/>
</g>
<path d="M1185.11 1236.23C1185.27 1231.37 1187.94 1226.36 1196.79 1222.62L1203.78 1219.69C1209.22 1217.4 1213.7 1214.84 1213.7 1209.5C1213.7 1204.44 1209.11 1201.29 1201.91 1201.29C1194.02 1201.29 1189.43 1205.18 1189.43 1211.64V1212.33H1185.59V1211.64C1185.59 1203.58 1191.72 1198.14 1201.91 1198.14C1211.25 1198.14 1217.59 1202.52 1217.59 1209.5C1217.59 1216.6 1211.67 1219.9 1205.59 1222.52L1199.24 1225.18C1192.74 1227.9 1190.07 1231.11 1189.64 1232.92H1218.39V1236.23H1185.11ZM1242.79 1236.97C1232.28 1236.97 1224.87 1229.24 1224.87 1217.61C1224.87 1206.04 1232.39 1198.14 1242.79 1198.14C1253.19 1198.14 1260.66 1206.04 1260.66 1217.61C1260.66 1229.24 1253.29 1236.97 1242.79 1236.97ZM1228.81 1217.56C1228.81 1227.85 1234.36 1233.83 1242.79 1233.83C1251.27 1233.83 1256.71 1227.74 1256.71 1217.56C1256.71 1207.48 1251.27 1201.29 1242.79 1201.29C1234.36 1201.29 1228.81 1207.37 1228.81 1217.56ZM1267.04 1236.23C1267.2 1231.37 1269.87 1226.36 1278.73 1222.62L1285.71 1219.69C1291.15 1217.4 1295.63 1214.84 1295.63 1209.5C1295.63 1204.44 1291.05 1201.29 1283.85 1201.29C1275.95 1201.29 1271.37 1205.18 1271.37 1211.64V1212.33H1267.52V1211.64C1267.52 1203.58 1273.66 1198.14 1283.85 1198.14C1293.18 1198.14 1299.53 1202.52 1299.53 1209.5C1299.53 1216.6 1293.61 1219.9 1287.53 1222.52L1281.18 1225.18C1274.67 1227.9 1272.01 1231.11 1271.58 1232.92H1300.33V1236.23H1267.04ZM1328.55 1236.23V1226.2H1304.17V1222.52L1327.85 1198.89H1332.07V1223.1H1341.72V1226.2H1332.07V1236.23H1328.55ZM1307.91 1223.1H1328.55V1202.46C1327.27 1203.8 1325.93 1205.13 1324.6 1206.41L1312.12 1218.84C1310.68 1220.22 1309.35 1221.66 1307.91 1223.1Z" fill="white"/>
<path d="M140.522 1236.23V1198.89H171.992V1202.14H144.309V1215.58H170.872V1218.78H144.309V1232.97H172.899V1236.23H140.522ZM197.999 1236.97C184.131 1236.97 178.797 1230.68 178.37 1223.9H182.477C182.797 1228.22 186.851 1233.67 197.945 1233.67C207.813 1233.67 212.934 1230.57 212.934 1225.77C212.934 1221.98 210.107 1220.17 202.799 1219.26L192.932 1218.09C183.917 1217.02 180.024 1213.82 180.024 1208.6C180.024 1203.05 185.944 1198.14 197.359 1198.14C208.88 1198.14 215.121 1203.32 215.707 1209.66H211.493C211.013 1205.13 205.946 1201.45 197.359 1201.45C188.398 1201.45 183.971 1204.65 183.971 1208.44C183.971 1211.9 186.478 1213.72 193.945 1214.57L204.346 1215.8C213.147 1216.81 217.094 1220.49 217.094 1225.61C217.094 1232.17 210.747 1236.97 197.999 1236.97ZM237.152 1236.23V1202.2H218.91V1198.89H259.18V1202.2H240.939V1236.23H237.152ZM265.691 1236.23V1198.89H283.4C298.121 1198.89 306.815 1205.56 306.815 1217.56C306.815 1229.56 298.601 1236.23 284.306 1236.23H265.691ZM269.478 1232.92H283.026C295.988 1232.92 302.762 1227.64 302.762 1217.56C302.762 1207.48 295.881 1202.2 282.866 1202.2H269.478V1232.92Z" fill="white"/>
<path d="M9.43652 68C9.43652 35.4152 35.8517 9 68.4365 9H1420C1452.58 9 1479 35.4153 1479 68.0001V1409.64C1479 1429.8 1468.71 1448.56 1451.72 1459.39L775.94 1890.32C756.591 1902.66 731.844 1902.66 712.496 1890.32L36.7145 1459.39C19.7227 1448.56 9.43652 1429.8 9.43652 1409.64V68Z" stroke="white" stroke-width="18"/>
</svg>
