<svg width="120" height="120" viewBox="0 0 120 120" fill="none" xmlns="http://www.w3.org/2000/svg">
<mask id="mask0_271_3" style="mask-type:luminance" maskUnits="userSpaceOnUse" x="0" y="0" width="120" height="120">
<path d="M120 0H0V120H120V0Z" fill="white"/>
</mask>
<g mask="url(#mask0_271_3)">
<path d="M90.2896 120H29.7102C13.328 120 0 106.673 0 90.2905V29.7117C0 13.3291 13.328 0.000976562 29.7102 0.000976562H90.2896C106.672 0.000976562 120 13.3291 120 29.7117V90.2905C120 106.673 106.672 120 90.2896 120Z" fill="#472A91"/>
<path d="M78.7413 37.9771L72.8243 60.1988L66.8881 37.9771H53.2271L47.234 60.3625L41.2606 37.9771H25.7012L40.1594 87.1091H53.5829L60.0016 64.2941L66.4202 87.1091H79.8726L94.2991 37.9771H78.7413Z" fill="white"/>
</g>
</svg>
